<?xml version="1.0" encoding="ISO-8859-1" standalone="no" ?>
<!DOCTYPE svg PUBLIC "-//W3C//DTD SVG 20010904//EN" "http://www.w3.org/TR/2001/REC-SVG-20010904/DTD/svg10.dtd">
<svg y="0" x="0" fill="white" width="470" height="353" infographic="config" class="infographic" xmlns="http://www.w3.org/2000/svg" xmlns:xlink="http://www.w3.org/1999/xlink"><rect y="0" x="0" fill="white" width="470" height="353"></rect><image y="0" x="0" xlink:href="http://www.sport-kingston.co.uk/Football-330vlarge.jpg" preserveAspectRatio="xMinYMin slice" width="470" height="353"></image><image y="308" x="10" xlink:href="http://matchstory.co.uk/wp-content/uploads/2013/08/ms_web_logo3.png" preserveAspectRatio="xMaxYMax meet" width="195" height="35"></image><text y="34" x="10" fill="white" font-family="Helvetica Neue" line-height="24px" font-size="24px">THE MEN WHO'LL RUN THE SHOW</text><rect y="51.5" x="0" fill="black" fill-opacity="0.5" width="400" height="250"></rect><g width="400" height="250" y="51.5" x="0"><text y="81.5" x="10" fill="white" font-family="Helvetica Neue" line-height="20px" font-size="16px">Players who have completed the most </text><text y="101.5" x="10" fill="white" font-family="Helvetica Neue" line-height="20px" font-size="16px">passes in the two squads</text><g><text alignment-baseline="central" text-anchor="end" height="13.600000000000001" y="126.5" x="100">Mascherano</text><text alignment-baseline="central" text-anchor="end" height="13.600000000000001" y="143.5" x="100">Lahm</text><text alignment-baseline="central" text-anchor="end" height="13.600000000000001" y="160.5" x="100">Kroos</text><text alignment-baseline="central" text-anchor="end" height="13.600000000000001" y="177.5" x="100">Schweinsteiger</text><text alignment-baseline="central" text-anchor="end" height="13.600000000000001" y="194.5" x="100">Mertestacker</text><text alignment-baseline="central" text-anchor="end" height="13.600000000000001" y="211.5" x="100">Gago</text><text alignment-baseline="central" text-anchor="end" height="13.600000000000001" y="228.5" x="100">Boateng</text><text alignment-baseline="central" text-anchor="end" height="13.600000000000001" y="245.5" x="100">Garay</text><text alignment-baseline="central" text-anchor="end" height="13.600000000000001" y="262.5" x="100">Ozil</text><text alignment-baseline="central" text-anchor="end" height="13.600000000000001" y="279.5" x="100">Zabaleta</text></g><g><rect fill="lightBlue" width="250" height="13.600000000000001" y="116.5" x="110.00000000000001"></rect><rect fill="white" width="238.12217194570138" height="13.600000000000001" y="133.5" x="110.00000000000001"></rect><rect fill="white" width="236.42533936651586" height="13.600000000000001" y="150.5" x="110.00000000000001"></rect><rect fill="white" width="166.28959276018102" height="13.600000000000001" y="167.5" x="110.00000000000001"></rect><rect fill="white" width="165.158371040724" height="13.600000000000001" y="184.5" x="110.00000000000001"></rect><rect fill="lightBlue" width="156.6742081447964" height="13.600000000000001" y="201.5" x="110.00000000000001"></rect><rect fill="white" width="152.71493212669685" height="13.600000000000001" y="218.5" x="110.00000000000001"></rect><rect fill="lightBlue" width="151.01809954751133" height="13.600000000000001" y="235.5" x="110.00000000000001"></rect><rect fill="white" width="140.2714932126697" height="13.600000000000001" y="252.5" x="110.00000000000001"></rect><rect fill="lightBlue" width="122.73755656108598" height="13.600000000000001" y="269.5" x="110.00000000000001"></rect></g><g><text fill="lightBlue" height="13.600000000000001" y="126.5" x="370">442</text><text fill="white" height="13.600000000000001" y="143.5" x="358.1221719457014">421</text><text fill="white" height="13.600000000000001" y="160.5" x="356.42533936651586">418</text><text fill="white" height="13.600000000000001" y="177.5" x="286.28959276018105">294</text><text fill="white" height="13.600000000000001" y="194.5" x="285.15837104072403">292</text><text fill="lightBlue" height="13.600000000000001" y="211.5" x="276.6742081447964">277</text><text fill="white" height="13.600000000000001" y="228.5" x="272.71493212669685">270</text><text fill="lightBlue" height="13.600000000000001" y="245.5" x="271.0180995475113">267</text><text fill="white" height="13.600000000000001" y="262.5" x="260.2714932126697">248</text><text fill="lightBlue" height="13.600000000000001" y="279.5" x="242.737556561086">217</text></g></g></svg>