<?xml version="1.0" encoding="ISO-8859-1" standalone="no" ?>
<!DOCTYPE svg PUBLIC "-//W3C//DTD SVG 20010904//EN" "http://www.w3.org/TR/2001/REC-SVG-20010904/DTD/svg10.dtd">
<svg y="0" x="0" fill="white" width="512" height="393" infographic="config" class="infographic" xmlns="http://www.w3.org/2000/svg" xmlns:xlink="http://www.w3.org/1999/xlink"><rect y="0" x="0" fill="white" width="512" height="393"></rect><image y="0" x="0" xlink:href="http://kookiecreatures.com/wp-content/uploads/2012/05/puppy-and-kitten.jpg" preserveAspectRatio="xMinYMin slice" width="512" height="393"></image><text y="34" x="10" fill="white" font-family="Helvetica Neue" line-height="24px" font-size="24px">Prefered </text><text y="58" x="10" fill="white" font-family="Helvetica Neue" line-height="24px" font-size="24px">Pets</text><rect y="143" x="0" fill="pink" fill-opacity="0.5" width="320" height="250"></rect><g width="320" height="250" y="143" x="0"><text y="173" x="10" fill="white" font-family="Helvetica Neue" line-height="20px" font-size="16px">11 out of 21 people prefer kittens (white)</text><text y="193" x="10" fill="white" font-family="Helvetica Neue" line-height="20px" font-size="16px"> over puppies (lightBlue) or lizards (green)</text><g><path d="M 214 372 A 75 75 0 1 0 225 223" stroke-width="20" stroke="white" fill="none"></path><path d="M 166 252 A 75 75 0 0 0 214 372" stroke-width="20" stroke="lightBlue" fill="none"></path><path d="M 225 223 A 75 75 0 0 0 166 252" stroke-width="20" stroke="green" fill="none"></path></g><g><path d="M 216 357 A 60 60 0 1 0 225 238" stroke-width="10" stroke="none" fill="none"></path><path d="M 178 261 A 60 60 0 0 0 216 357" stroke-width="10" stroke="none" fill="none"></path><path d="M 225 238 A 60 60 0 0 0 178 261" stroke-width="10" stroke="none" fill="none"></path></g><text y="308" x="205" fill="white" font-family="Helvetica Neue" line-height="20px" font-size="20px">52%</text><g><circle fill="white" r="8.666666666666668" cy="372.1666666666667" cx="27.5"></circle><circle fill="white" r="8.666666666666668" cy="350.5" cx="27.5"></circle><circle fill="white" r="8.666666666666668" cy="328.83333333333337" cx="27.5"></circle><circle fill="white" r="8.666666666666668" cy="307.1666666666667" cx="27.5"></circle><circle fill="white" r="8.666666666666668" cy="285.5" cx="27.5"></circle><circle fill="white" r="8.666666666666668" cy="263.83333333333337" cx="27.5"></circle><circle fill="white" r="8.666666666666668" cy="372.1666666666667" cx="49.166666666666664"></circle><circle fill="white" r="8.666666666666668" cy="350.5" cx="49.166666666666664"></circle><circle fill="white" r="8.666666666666668" cy="328.83333333333337" cx="49.166666666666664"></circle><circle fill="white" r="8.666666666666668" cy="307.1666666666667" cx="49.166666666666664"></circle><circle fill="white" r="8.666666666666668" cy="285.5" cx="49.166666666666664"></circle><circle fill="lightBlue" r="8.666666666666668" cy="263.83333333333337" cx="49.166666666666664"></circle><circle fill="lightBlue" r="8.666666666666668" cy="372.1666666666667" cx="70.83333333333334"></circle><circle fill="lightBlue" r="8.666666666666668" cy="350.5" cx="70.83333333333334"></circle><circle fill="lightBlue" r="8.666666666666668" cy="328.83333333333337" cx="70.83333333333334"></circle><circle fill="lightBlue" r="8.666666666666668" cy="307.1666666666667" cx="70.83333333333334"></circle><circle fill="lightBlue" r="8.666666666666668" cy="285.5" cx="70.83333333333334"></circle><circle fill="lightBlue" r="8.666666666666668" cy="263.83333333333337" cx="70.83333333333334"></circle><circle fill="green" r="8.666666666666668" cy="372.1666666666667" cx="92.5"></circle><circle fill="green" r="8.666666666666668" cy="350.5" cx="92.5"></circle><circle fill="green" r="8.666666666666668" cy="328.83333333333337" cx="92.5"></circle></g><text y="243" x="30" fill="white" font-family="Helvetica Neue" line-height="20px" font-size="20px">11 / 21</text></g></svg>