<?xml version="1.0" encoding="ISO-8859-1" standalone="no" ?>
<!DOCTYPE svg PUBLIC "-//W3C//DTD SVG 20010904//EN" "http://www.w3.org/TR/2001/REC-SVG-20010904/DTD/svg10.dtd">
<svg y="0" x="0" fill="white" width="470" height="353" infographic="config" class="infographic ng-isolate-scope" xmlns="http://www.w3.org/2000/svg" xmlns:xlink="http://www.w3.org/1999/xlink"><rect y="0" x="0" fill="white" width="470" height="353"></rect><image y="0" x="0" xlink:href="http://slowbuddy.com/wp-content/gallery/aeroplane-images/aeroplane-1.jpg" preserveAspectRatio="xMinYMin slice" width="470" height="353"></image><text y="34" x="10" fill="white" font-family="Helvetica Neue" line-height="24px" font-size="24px">International Tourism</text><rect y="51.5" x="0" fill="black" fill-opacity="0.5" width="400" height="250"></rect><g width="400" height="250" y="51.5" x="0"><text y="81.5" x="10" fill="white" font-family="Helvetica Neue" line-height="20px" font-size="16px">International Tourist Arrivals (2012), in millions </text><text y="101.5" x="10" fill="white" font-family="Helvetica Neue" line-height="20px" font-size="16px">- Source Wikipedia</text><g><text alignment-baseline="central" text-anchor="end" height="13.600000000000001" y="128" x="120">France</text><text alignment-baseline="central" text-anchor="end" height="13.600000000000001" y="145" x="120">USA</text><text alignment-baseline="central" text-anchor="end" height="13.600000000000001" y="162" x="120">China</text><text alignment-baseline="central" text-anchor="end" height="13.600000000000001" y="179" x="120">Spain</text><text alignment-baseline="central" text-anchor="end" height="13.600000000000001" y="196" x="120">Italy</text><text alignment-baseline="central" text-anchor="end" height="13.600000000000001" y="213" x="120">Turkey</text><text alignment-baseline="central" text-anchor="end" height="13.600000000000001" y="230" x="120">Germany</text><text alignment-baseline="central" text-anchor="end" height="13.600000000000001" y="247" x="120">UK</text><text alignment-baseline="central" text-anchor="end" height="13.600000000000001" y="264" x="120">Russia</text><text alignment-baseline="central" text-anchor="end" height="13.600000000000001" y="281" x="120">Thailand</text></g><g><rect fill="lightBlue" width="228" height="13.600000000000001" y="116.5" x="132"></rect><rect fill="white" width="183.22409638554217" height="13.600000000000001" y="133.5" x="132"></rect><rect fill="red" width="158.50120481927712" height="13.600000000000001" y="150.5" x="132"></rect><rect fill="yellow" width="157.95180722891567" height="13.600000000000001" y="167.5" x="132"></rect><rect fill="green" width="127.46024096385543" height="13.600000000000001" y="184.5" x="132"></rect><rect fill="red" width="98.06746987951809" height="13.600000000000001" y="201.5" x="132"></rect><rect fill="black" width="83.50843373493976" height="13.600000000000001" y="218.5" x="132"></rect><rect fill="white" width="80.4867469879518" height="13.600000000000001" y="235.5" x="132"></rect><rect fill="red" width="70.59759036144578" height="13.600000000000001" y="252.5" x="132"></rect><rect fill="orange" width="61.53253012048193" height="13.600000000000001" y="269.5" x="132"></rect></g><g><text fill="lightBlue" alignment-baseline="central" height="13.600000000000001" y="128" x="370">83</text><text fill="white" alignment-baseline="central" height="13.600000000000001" y="145" x="325.22409638554217">66.7</text><text fill="red" alignment-baseline="central" height="13.600000000000001" y="162" x="300.5012048192771">57.7</text><text fill="yellow" alignment-baseline="central" height="13.600000000000001" y="179" x="299.95180722891564">57.5</text><text fill="green" alignment-baseline="central" height="13.600000000000001" y="196" x="269.4602409638554">46.4</text><text fill="red" alignment-baseline="central" height="13.600000000000001" y="213" x="240.0674698795181">35.7</text><text fill="black" alignment-baseline="central" height="13.600000000000001" y="230" x="225.50843373493976">30.4</text><text fill="white" alignment-baseline="central" height="13.600000000000001" y="247" x="222.4867469879518">29.3</text><text fill="red" alignment-baseline="central" height="13.600000000000001" y="264" x="212.59759036144578">25.7</text><text fill="orange" alignment-baseline="central" height="13.600000000000001" y="281" x="203.53253012048194">22.4</text></g></g></svg>