<?xml version="1.0" encoding="ISO-8859-1" standalone="no" ?>
<!DOCTYPE svg PUBLIC "-//W3C//DTD SVG 20010904//EN" "http://www.w3.org/TR/2001/REC-SVG-20010904/DTD/svg10.dtd">
<svg y="0" x="0" fill="white" width="512" height="393" infographic="config" class="infographic" xmlns="http://www.w3.org/2000/svg" xmlns:xlink="http://www.w3.org/1999/xlink"><rect y="0" x="0" fill="white" width="512" height="393"></rect><image y="0" x="0" xlink:href="/img/Football-Players-soccer-478091_1024_768.jpg" preserveAspectRatio="xMinYMin slice" width="512" height="393"></image><image y="348" x="307" xlink:href="http://matchstory.co.uk/wp-content/uploads/2013/08/ms_web_logo3.png" preserveAspectRatio="xMaxYMax meet" width="195" height="35"></image><text y="34" x="10" fill="white" font-family="Helvetica Neue" line-height="24px" font-size="24px">MEXICO</text><rect y="71.5" x="112" fill="black" fill-opacity="0.5" width="400" height="250"></rect><g width="400" height="250" y="71.5" x="112"><text y="101.5" x="122" fill="white" font-family="Helvetica Neue" line-height="20px" font-size="16px">Against Brazil, 11 of Mexico's 13 shots</text><text y="121.5" x="122" fill="white" font-family="Helvetica Neue" line-height="20px" font-size="16px"> where taken from outside the area</text><g><path d="M 145 184 A 75 75 0 1 0 207 152" stroke-width="20" stroke="green" fill="none"></path><path d="M 208 152 A 75 75 0 0 0 145 184" stroke-width="20" stroke="grey" fill="none"></path></g><g><path d="M 158 192 A 60 60 0 1 0 207 167" stroke-width="10" stroke="white" fill="none"></path><path d="M 207 167 A 60 60 0 0 0 158 192" stroke-width="10" stroke="none" fill="none"></path></g><text y="236.5" x="187" fill="white" font-family="Helvetica Neue" line-height="20px" font-size="20px">85%</text><g><circle fill="green" r="10.4" cy="298.5" cx="426"></circle><circle fill="green" r="10.4" cy="272.5" cx="426"></circle><circle fill="green" r="10.4" cy="246.5" cx="426"></circle><circle fill="green" r="10.4" cy="220.5" cx="426"></circle><circle fill="green" r="10.4" cy="194.5" cx="426"></circle><circle fill="green" r="10.4" cy="298.5" cx="452"></circle><circle fill="green" r="10.4" cy="272.5" cx="452"></circle><circle fill="green" r="10.4" cy="246.5" cx="452"></circle><circle fill="green" r="10.4" cy="220.5" cx="452"></circle><circle fill="green" r="10.4" cy="194.5" cx="452"></circle><circle fill="green" r="10.4" cy="298.5" cx="478"></circle><circle fill="grey" r="10.4" cy="272.5" cx="478"></circle><circle fill="grey" r="10.4" cy="246.5" cx="478"></circle></g><text y="171.5" x="422" fill="white" font-family="Helvetica Neue" line-height="20px" font-size="20px">11 / 13</text></g></svg>